{
  "accessors": [
    {
      "bufferView": 2,
      "componentType": 5126,
      "count": 627,
      "max": [
        0.0066541722044348717,
        0.013981219381093979,
        0.18272851407527924
      ],
      "min": [
        0.0019290220225229859,
        0.0083933193236589432,
        0.17797836661338806
      ],
      "type": "VEC3"
    },
    {
      "bufferView": 2,
      "byteOffset": 7524,
      "componentType": 5126,
      "count": 627,
      "max": [
        0.99743759632110596,
        0.99156457185745239,
        0.99659019708633423
      ],
      "min": [
        -0.99864470958709717,
        -0.99896121025085449,
        -0.99999630451202393
      ],
      "type": "VEC3"
    },
    {
      "bufferView": 1,
      "componentType": 5126,
      "count": 627,
      "max": [
        2.7468016147613525,
        6.0318574905395508
      ],
      "min": [
        0,
        0
      ],
      "type": "VEC2"
    },
    {
      "bufferView": 0,
      "componentType": 5125,
      "count": 3750,
      "max": [
        626
      ],
      "min": [
        0
      ],
      "type": "SCALAR"
    },
    {
      "bufferView": 2,
      "byteOffset": 15048,
      "componentType": 5126,
      "count": 324,
      "max": [
        0.0069320588372647762,
        0.014984044246375561,
        0.18201516568660736
      ],
      "min": [
        0.0003186450048815459,
        0.0081865927204489708,
        0.17647555470466614
      ],
      "type": "VEC3"
    },
    {
      "bufferView": 2,
      "byteOffset": 18936,
      "componentType": 5126,
      "count": 324,
      "max": [
        0.99370354413986206,
        0.98394405841827393,
        0.98875802755355835
      ],
      "min": [
        -0.99370354413986206,
        -0.98394405841827393,
        -0.98875802755355835
      ],
      "type": "VEC3"
    },
    {
      "bufferView": 1,
      "byteOffset": 5016,
      "componentType": 5126,
      "count": 324,
      "max": [
        0,
        0
      ],
      "min": [
        0,
        0
      ],
      "type": "VEC2"
    },
    {
      "bufferView": 0,
      "byteOffset": 15000,
      "componentType": 5125,
      "count": 702,
      "max": [
        323
      ],
      "min": [
        0
      ],
      "type": "SCALAR"
    },
    {
      "bufferView": 2,
      "byteOffset": 22824,
      "componentType": 5126,
      "count": 5400,
      "max": [
        0.048318430781364441,
        0.059492640197277069,
        0.15273742377758026
      ],
      "min": [
        -0.047398149967193604,
        -0.025290319696068764,
        0.087942391633987427
      ],
      "type": "VEC3"
    },
    {
      "bufferView": 2,
      "byteOffset": 87624,
      "componentType": 5126,
      "count": 5400,
      "max": [
        0.98233312368392944,
        0.99829089641571045,
        0.99335676431655884
      ],
      "min": [
        -0.98233312368392944,
        -0.99829089641571045,
        -0.99335676431655884
      ],
      "type": "VEC3"
    },
    {
      "bufferView": 1,
      "byteOffset": 7608,
      "componentType": 5126,
      "count": 5400,
      "max": [
        1,
        1
      ],
      "min": [
        0,
        0
      ],
      "type": "VEC2"
    },
    {
      "bufferView": 0,
      "byteOffset": 17808,
      "componentType": 5125,
      "count": 28512,
      "max": [
        5399
      ],
      "min": [
        0
      ],
      "type": "SCALAR"
    },
    {
      "bufferView": 2,
      "byteOffset": 152424,
      "componentType": 5126,
      "count": 2262,
      "max": [
        0.030403269454836845,
        0.030957372859120369,
        0.20437097549438477
      ],
      "min": [
        -0.011478985659778118,
        -0.013770238496363163,
        0.17516340315341949
      ],
      "type": "VEC3"
    },
    {
      "bufferView": 2,
      "byteOffset": 179568,
      "componentType": 5126,
      "count": 2262,
      "max": [
        0.99968034029006958,
        0.98919522762298584,
        0.99944454431533813
      ],
      "min": [
        -0.99968034029006958,
        -0.98919522762298584,
        -0.99944454431533813
      ],
      "type": "VEC3"
    },
    {
      "bufferView": 1,
      "byteOffset": 50808,
      "componentType": 5126,
      "count": 2262,
      "max": [
        1,
        1
      ],
      "min": [
        0,
        0
      ],
      "type": "VEC2"
    },
    {
      "bufferView": 0,
      "byteOffset": 131856,
      "componentType": 5125,
      "count": 11532,
      "max": [
        2261
      ],
      "min": [
        0
      ],
      "type": "SCALAR"
    },
    {
      "bufferView": 2,
      "byteOffset": 206712,
      "componentType": 5126,
      "count": 729,
      "max": [
        0.03235204890370369,
        0.0349138043820858,
        0.18194912374019623
      ],
      "min": [
        -0.02434191107749939,
        -0.0032310211099684238,
        0.0043053403496742249
      ],
      "type": "VEC3"
    },
    {
      "bufferView": 2,
      "byteOffset": 215460,
      "componentType": 5126,
      "count": 729,
      "max": [
        0.997092604637146,
        0.99976229667663574,
        0.99918681383132935
      ],
      "min": [
        -0.99240010976791382,
        -0.99976229667663574,
        -0.9979097843170166
      ],
      "type": "VEC3"
    },
    {
      "bufferView": 1,
      "byteOffset": 68904,
      "componentType": 5126,
      "count": 729,
      "max": [
        1,
        1
      ],
      "min": [
        0,
        0
      ],
      "type": "VEC2"
    },
    {
      "bufferView": 0,
      "byteOffset": 177984,
      "componentType": 5125,
      "count": 3672,
      "max": [
        728
      ],
      "min": [
        0
      ],
      "type": "SCALAR"
    }
  ],
  "asset": {
    "extras": {
      "author": "Skuft (https://sketchfab.com/Skuft)",
      "license": "CC-BY-4.0 (http://creativecommons.org/licenses/by/4.0/)",
      "source": "https://sketchfab.com/3d-models/wood-anemone-cec4f820ad70467899c661498564a780",
      "title": "Wood anemone"
    },
    "generator": "Sketchfab-8.10.0",
    "version": "2.0"
  },
  "bufferViews": [
    {
      "buffer": 0,
      "byteLength": 192672,
      "byteOffset": 0,
      "name": "floatBufferViews",
      "target": 34963
    },
    {
      "buffer": 0,
      "byteLength": 74736,
      "byteOffset": 192672,
      "byteStride": 8,
      "name": "floatBufferViews",
      "target": 34962
    },
    {
      "buffer": 0,
      "byteLength": 224208,
      "byteOffset": 267408,
      "byteStride": 12,
      "name": "floatBufferViews",
      "target": 34962
    }
  ],
  "buffers": [
    {
      "byteLength": 491616,
      "uri": "scene.bin"
    }
  ],
  "materials": [
    {
      "doubleSided": true,
      "emissiveFactor": [
        0,
        0,
        0
      ],
      "name": "Cartoon2AAE15",
      "pbrMetallicRoughness": {
        "baseColorFactor": [
          0.16470599999999999,
          0.68235299999999999,
          0.082352900000000007,
          1
        ],
        "metallicFactor": 0,
        "roughnessFactor": 1
      }
    },
    {
      "doubleSided": true,
      "emissiveFactor": [
        0,
        0,
        0
      ],
      "name": "CartoonE8D80C",
      "pbrMetallicRoughness": {
        "baseColorFactor": [
          0.90980399999999995,
          0.84705900000000001,
          0.047058799999999998,
          1
        ],
        "metallicFactor": 0,
        "roughnessFactor": 1
      }
    },
    {
      "doubleSided": true,
      "emissiveFactor": [
        0,
        0,
        0
      ],
      "name": "CartoonEBC7E4",
      "pbrMetallicRoughness": {
        "baseColorFactor": [
          0.92156899999999997,
          0.78039199999999997,
          0.89411799999999997,
          1
        ],
        "metallicFactor": 0,
        "roughnessFactor": 1
      }
    },
    {
      "doubleSided": true,
      "emissiveFactor": [
        0,
        0,
        0
      ],
      "name": "CartoonFFF2BC",
      "pbrMetallicRoughness": {
        "baseColorFactor": [
          1,
          0.94901999999999997,
          0.73725499999999999,
          1
        ],
        "metallicFactor": 0,
        "roughnessFactor": 1
      }
    },
    {
      "doubleSided": true,
      "emissiveFactor": [
        0,
        0,
        0
      ],
      "name": "Standard565D00",
      "pbrMetallicRoughness": {
        "baseColorFactor": [
          0.33725500000000003,
          0.36470599999999997,
          0,
          1
        ],
        "metallicFactor": 0,
        "roughnessFactor": 1
      }
    }
  ],
  "meshes": [
    {
      "primitives": [
        {
          "attributes": {
            "NORMAL": 1,
            "POSITION": 0,
            "TEXCOORD_0": 2
          },
          "indices": 3,
          "material": 1,
          "mode": 4
        }
      ]
    },
    {
      "primitives": [
        {
          "attributes": {
            "NORMAL": 5,
            "POSITION": 4,
            "TEXCOORD_0": 6
          },
          "indices": 7,
          "material": 2,
          "mode": 4
        }
      ]
    },
    {
      "primitives": [
        {
          "attributes": {
            "NORMAL": 9,
            "POSITION": 8,
            "TEXCOORD_0": 10
          },
          "indices": 11,
          "material": 0,
          "mode": 4
        }
      ]
    },
    {
      "primitives": [
        {
          "attributes": {
            "NORMAL": 13,
            "POSITION": 12,
            "TEXCOORD_0": 14
          },
          "indices": 15,
          "material": 3,
          "mode": 4
        }
      ]
    },
    {
      "primitives": [
        {
          "attributes": {
            "NORMAL": 17,
            "POSITION": 16,
            "TEXCOORD_0": 18
          },
          "indices": 19,
          "material": 4,
          "mode": 4
        }
      ]
    }
  ],
  "nodes": [
    {
      "children": [
        1
      ],
      "name": "RootNode (gltf orientation matrix)",
      "rotation": [
        -0.70710678118654746,
        -0,
        -0,
        0.70710678118654757
      ]
    },
    {
      "children": [
        2
      ],
      "name": "RootNode (model correction matrix)"
    },
    {
      "children": [
        3,
        4,
        5,
        6,
        7
      ],
      "name": "wood_anemone_1.obj.cleaner.materialmerger.gles"
    },
    {
      "mesh": 0,
      "name": ""
    },
    {
      "mesh": 1,
      "name": ""
    },
    {
      "mesh": 2,
      "name": ""
    },
    {
      "mesh": 3,
      "name": ""
    },
    {
      "mesh": 4,
      "name": ""
    }
  ],
  "scene": 0,
  "scenes": [
    {
      "name": "OSG_Scene",
      "nodes": [
        0
      ]
    }
  ]
}

